{
  "accessors": [
    {
      "bufferView": 1,
      "componentType": 5126,
      "count": 9133,
      "max": [
        158.25,
        -188.0,
        73.5
      ],
      "min": [
        -156.5,
        -253.7100067138672,
        14.0
      ],
      "type": "VEC3"
    },
    {
      "bufferView": 1,
      "byteOffset": 109596,
      "componentType": 5126,
      "count": 9133,
      "max": [
        1.0,
        1.0,
        1.0
      ],
      "min": [
        -1.0,
        -1.0,
        -1.0
      ],
      "type": "VEC3"
    },
    {
      "bufferView": 0,
      "componentType": 5125,
      "count": 25143,
      "type": "SCALAR"
    },
    {
      "bufferView": 1,
      "byteOffset": 219192,
      "componentType": 5126,
      "count": 403,
      "max": [
        238.48300170898438,
        -185.218994140625,
        59.25
      ],
      "min": [
        -158.0,
        -256.4419860839844,
        26.7189998626709
      ],
      "type": "VEC3"
    },
    {
      "bufferView": 1,
      "byteOffset": 224028,
      "componentType": 5126,
      "count": 403,
      "max": [
        1.0,
        1.0,
        1.0
      ],
      "min": [
        -1.0,
        -1.0,
        -1.0
      ],
      "type": "VEC3"
    },
    {
      "bufferView": 0,
      "byteOffset": 100572,
      "componentType": 5125,
      "count": 891,
      "type": "SCALAR"
    },
    {
      "bufferView": 1,
      "byteOffset": 228864,
      "componentType": 5126,
      "count": 1170,
      "max": [
        -2.243000030517578,
        -203.375,
        67.25399780273438
      ],
      "min": [
        -296.0010070800781,
        -255.50100708007813,
        30.718000411987305
      ],
      "type": "VEC3"
    },
    {
      "bufferView": 1,
      "byteOffset": 242904,
      "componentType": 5126,
      "count": 1170,
      "max": [
        1.0,
        1.0,
        1.0
      ],
      "min": [
        -1.0,
        -1.0,
        -1.0
      ],
      "type": "VEC3"
    },
    {
      "bufferView": 0,
      "byteOffset": 104136,
      "componentType": 5125,
      "count": 2949,
      "type": "SCALAR"
    },
    {
      "bufferView": 1,
      "byteOffset": 256944,
      "componentType": 5126,
      "count": 1450,
      "max": [
        -29.493999481201172,
        -264.5,
        60.05059814453125
      ],
      "min": [
        -57.99399948120117,
        -277.0989990234375,
        40.459999084472656
      ],
      "type": "VEC3"
    },
    {
      "bufferView": 1,
      "byteOffset": 274344,
      "componentType": 5126,
      "count": 1450,
      "max": [
        0.9971626400947571,
        0.9863103628158569,
        1.0
      ],
      "min": [
        -0.9863106608390808,
        -0.9980419278144836,
        -1.0
      ],
      "type": "VEC3"
    },
    {
      "bufferView": 0,
      "byteOffset": 115932,
      "componentType": 5125,
      "count": 5433,
      "type": "SCALAR"
    },
    {
      "bufferView": 1,
      "byteOffset": 291744,
      "componentType": 5126,
      "count": 13528,
      "max": [
        115.24700164794922,
        -199.25999450683594,
        101.55000305175781
      ],
      "min": [
        -245.0,
        -240.46499633789063,
        17.75
      ],
      "type": "VEC3"
    },
    {
      "bufferView": 1,
      "byteOffset": 454080,
      "componentType": 5126,
      "count": 13528,
      "max": [
        1.0,
        1.0,
        1.0
      ],
      "min": [
        -1.0,
        -1.0,
        -1.0
      ],
      "type": "VEC3"
    },
    {
      "bufferView": 0,
      "byteOffset": 137664,
      "componentType": 5125,
      "count": 29562,
      "type": "SCALAR"
    },
    {
      "bufferView": 1,
      "byteOffset": 616416,
      "componentType": 5126,
      "count": 8392,
      "max": [
        54.25,
        -73.09600067138672,
        54.25
      ],
      "min": [
        5.25,
        -187.5959930419922,
        33.75
      ],
      "type": "VEC3"
    },
    {
      "bufferView": 1,
      "byteOffset": 717120,
      "componentType": 5126,
      "count": 8392,
      "max": [
        1.0,
        1.0,
        1.0
      ],
      "min": [
        -1.0,
        -1.0,
        -1.0
      ],
      "type": "VEC3"
    },
    {
      "bufferView": 0,
      "byteOffset": 255912,
      "componentType": 5125,
      "count": 26931,
      "type": "SCALAR"
    },
    {
      "bufferView": 1,
      "byteOffset": 817824,
      "componentType": 5126,
      "count": 19742,
      "max": [
        256.0,
        -79.5,
        68.32499694824219
      ],
      "min": [
        -378.00299072265625,
        -304.0,
        20.674999237060547
      ],
      "type": "VEC3"
    },
    {
      "bufferView": 1,
      "byteOffset": 1054728,
      "componentType": 5126,
      "count": 19742,
      "max": [
        1.0,
        1.0,
        1.0
      ],
      "min": [
        -1.0,
        -1.0,
        -1.0
      ],
      "type": "VEC3"
    },
    {
      "bufferView": 0,
      "byteOffset": 363636,
      "componentType": 5125,
      "count": 61125,
      "type": "SCALAR"
    },
    {
      "bufferView": 1,
      "byteOffset": 1291632,
      "componentType": 5126,
      "count": 4585,
      "max": [
        -44.994998931884766,
        -181.125,
        100.97100067138672
      ],
      "min": [
        -306.5,
        -301.4670104980469,
        18.0
      ],
      "type": "VEC3"
    },
    {
      "bufferView": 1,
      "byteOffset": 1346652,
      "componentType": 5126,
      "count": 4585,
      "max": [
        1.0,
        1.0,
        1.0
      ],
      "min": [
        -1.0,
        -1.0,
        -1.0
      ],
      "type": "VEC3"
    },
    {
      "bufferView": 0,
      "byteOffset": 608136,
      "componentType": 5125,
      "count": 10998,
      "type": "SCALAR"
    },
    {
      "bufferView": 1,
      "byteOffset": 1401672,
      "componentType": 5126,
      "count": 25116,
      "max": [
        237.25,
        -1.093999981880188,
        104.75
      ],
      "min": [
        -330.5010070800781,
        -297.5,
        -31.843000411987305
      ],
      "type": "VEC3"
    },
    {
      "bufferView": 1,
      "byteOffset": 1703064,
      "componentType": 5126,
      "count": 25116,
      "max": [
        1.0,
        1.0,
        1.0
      ],
      "min": [
        -1.0,
        -1.0,
        -1.0
      ],
      "type": "VEC3"
    },
    {
      "bufferView": 0,
      "byteOffset": 652128,
      "componentType": 5125,
      "count": 80355,
      "type": "SCALAR"
    },
    {
      "bufferView": 1,
      "byteOffset": 2004456,
      "componentType": 5126,
      "count": 4941,
      "max": [
        11.895000457763672,
        0.08399999886751175,
        97.75
      ],
      "min": [
        -235.81419372558594,
        -265.0,
        -52.474998474121094
      ],
      "type": "VEC3"
    },
    {
      "bufferView": 1,
      "byteOffset": 2063748,
      "componentType": 5126,
      "count": 4941,
      "max": [
        1.0,
        1.0,
        1.0
      ],
      "min": [
        -1.0,
        -1.0,
        -1.0
      ],
      "type": "VEC3"
    },
    {
      "bufferView": 0,
      "byteOffset": 973548,
      "componentType": 5125,
      "count": 16944,
      "type": "SCALAR"
    },
    {
      "bufferView": 1,
      "byteOffset": 2123040,
      "componentType": 5126,
      "count": 231,
      "max": [
        -351.0010070800781,
        -213.75,
        30.625
      ],
      "min": [
        -378.00299072265625,
        -228.5,
        28.625
      ],
      "type": "VEC3"
    },
    {
      "bufferView": 1,
      "byteOffset": 2125812,
      "componentType": 5126,
      "count": 231,
      "max": [
        1.0,
        1.0,
        1.0
      ],
      "min": [
        -1.0,
        -1.0,
        -1.0
      ],
      "type": "VEC3"
    },
    {
      "bufferView": 0,
      "byteOffset": 1041324,
      "componentType": 5125,
      "count": 483,
      "type": "SCALAR"
    },
    {
      "bufferView": 1,
      "byteOffset": 2128584,
      "componentType": 5126,
      "count": 6014,
      "max": [
        258.0,
        -7.0,
        100.75
      ],
      "min": [
        -322.0010070800781,
        -274.5,
        7.0
      ],
      "type": "VEC3"
    },
    {
      "bufferView": 1,
      "byteOffset": 2200752,
      "componentType": 5126,
      "count": 6014,
      "max": [
        1.0,
        1.0,
        1.0
      ],
      "min": [
        -1.0,
        -1.0,
        -1.0
      ],
      "type": "VEC3"
    },
    {
      "bufferView": 0,
      "byteOffset": 1043256,
      "componentType": 5125,
      "count": 21141,
      "type": "SCALAR"
    },
    {
      "bufferView": 1,
      "byteOffset": 2272920,
      "componentType": 5126,
      "count": 784,
      "max": [
        -54.22999954223633,
        -196.5,
        95.375
      ],
      "min": [
        -292.5010070800781,
        -264.50799560546875,
        26.4689998626709
      ],
      "type": "VEC3"
    },
    {
      "bufferView": 1,
      "byteOffset": 2282328,
      "componentType": 5126,
      "count": 784,
      "max": [
        1.0,
        1.0,
        1.0
      ],
      "min": [
        -1.0,
        -1.0,
        -1.0
      ],
      "type": "VEC3"
    },
    {
      "bufferView": 0,
      "byteOffset": 1127820,
      "componentType": 5125,
      "count": 2148,
      "type": "SCALAR"
    },
    {
      "bufferView": 1,
      "byteOffset": 2291736,
      "componentType": 5126,
      "count": 3862,
      "max": [
        355.0,
        -204.0,
        50.0
      ],
      "min": [
        -51.92900085449219,
        -264.55499267578125,
        26.4689998626709
      ],
      "type": "VEC3"
    },
    {
      "bufferView": 1,
      "byteOffset": 2338080,
      "componentType": 5126,
      "count": 3862,
      "max": [
        1.0,
        1.0,
        0.9999765753746033
      ],
      "min": [
        -1.0,
        -1.0,
        -1.0
      ],
      "type": "VEC3"
    },
    {
      "bufferView": 0,
      "byteOffset": 1136412,
      "componentType": 5125,
      "count": 17694,
      "type": "SCALAR"
    },
    {
      "bufferView": 1,
      "byteOffset": 2384424,
      "componentType": 5126,
      "count": 726,
      "max": [
        -72.25409698486328,
        -262.88531494140625,
        54.21900177001953
      ],
      "min": [
        -75.48699951171875,
        -269.0920104980469,
        32.21900177001953
      ],
      "type": "VEC3"
    },
    {
      "bufferView": 1,
      "byteOffset": 2393136,
      "componentType": 5126,
      "count": 726,
      "max": [
        0.14005732536315918,
        0.9902626872062683,
        1.0
      ],
      "min": [
        -0.9908976554870605,
        -0.9902909994125366,
        -1.0
      ],
      "type": "VEC3"
    },
    {
      "bufferView": 0,
      "byteOffset": 1207188,
      "componentType": 5125,
      "count": 2070,
      "type": "SCALAR"
    },
    {
      "bufferView": 1,
      "byteOffset": 2401848,
      "componentType": 5126,
      "count": 1045,
      "max": [
        -272.0010070800781,
        -194.875,
        95.56729888916016
      ],
      "min": [
        -296.0010070800781,
        -236.875,
        82.35900115966797
      ],
      "type": "VEC3"
    },
    {
      "bufferView": 1,
      "byteOffset": 2414388,
      "componentType": 5126,
      "count": 1045,
      "max": [
        1.0,
        0.9582240581512451,
        1.0
      ],
      "min": [
        -1.0,
        -0.9582240581512451,
        -1.0
      ],
      "type": "VEC3"
    },
    {
      "bufferView": 0,
      "byteOffset": 1215468,
      "componentType": 5125,
      "count": 2982,
      "type": "SCALAR"
    },
    {
      "bufferView": 1,
      "byteOffset": 2426928,
      "componentType": 5126,
      "count": 42149,
      "max": [
        399.5,
        -56.81460189819336,
        70.4000015258789
      ],
      "min": [
        -390.3760070800781,
        -273.9755859375,
        16.476999282836914
      ],
      "type": "VEC3"
    },
    {
      "bufferView": 1,
      "byteOffset": 2932716,
      "componentType": 5126,
      "count": 42149,
      "max": [
        1.0,
        1.0,
        1.0
      ],
      "min": [
        -1.0,
        -1.0,
        -1.0
      ],
      "type": "VEC3"
    },
    {
      "bufferView": 0,
      "byteOffset": 1227396,
      "componentType": 5125,
      "count": 122931,
      "type": "SCALAR"
    },
    {
      "bufferView": 1,
      "byteOffset": 3438504,
      "componentType": 5126,
      "count": 61,
      "max": [
        -52.20899963378906,
        -260.3030090332031,
        26.7189998626709
      ],
      "min": [
        -54.040000915527344,
        -264.55499267578125,
        26.4689998626709
      ],
      "type": "VEC3"
    },
    {
      "bufferView": 1,
      "byteOffset": 3439236,
      "componentType": 5126,
      "count": 61,
      "max": [
        1.0,
        1.0,
        0.0
      ],
      "min": [
        -1.0,
        -1.0,
        -1.0
      ],
      "type": "VEC3"
    },
    {
      "bufferView": 0,
      "byteOffset": 1719120,
      "componentType": 5125,
      "count": 105,
      "type": "SCALAR"
    }
  ],
  "asset": {
    "extras": {
      "author": "DemonLord (https://sketchfab.com/wertert)",
      "license": "CC-BY-4.0 (http://creativecommons.org/licenses/by/4.0/)",
      "source": "https://sketchfab.com/3d-models/gun-of-cool-a31a8fd3b77242f89ef15b009eaa6eba",
      "title": "GUN of cool"
    },
    "generator": "Sketchfab-12.65.0",
    "version": "2.0"
  },
  "bufferViews": [
    {
      "buffer": 0,
      "byteLength": 1719540,
      "name": "floatBufferViews",
      "target": 34963
    },
    {
      "buffer": 0,
      "byteLength": 3439968,
      "byteOffset": 1719540,
      "byteStride": 12,
      "name": "floatBufferViews",
      "target": 34962
    }
  ],
  "buffers": [
    {
      "byteLength": 5159508,
      "uri": "scene.bin"
    }
  ],
  "materials": [
    {
      "doubleSided": true,
      "name": "color_10988977",
      "pbrMetallicRoughness": {
        "baseColorFactor": [
          0.654902,
          0.678431,
          0.694118,
          1.0
        ],
        "metallicFactor": 0.0
      }
    },
    {
      "doubleSided": true,
      "name": "color_11107152",
      "pbrMetallicRoughness": {
        "baseColorFactor": [
          0.662745,
          0.482353,
          0.313726,
          1.0
        ],
        "metallicFactor": 0.0
      }
    },
    {
      "doubleSided": true,
      "name": "color_13877221",
      "pbrMetallicRoughness": {
        "baseColorFactor": [
          0.827451,
          0.74902,
          0.898039,
          1.0
        ],
        "metallicFactor": 0.0
      }
    },
    {
      "doubleSided": true,
      "name": "color_14093196",
      "pbrMetallicRoughness": {
        "baseColorFactor": [
          0.843137,
          0.0431373,
          0.54902,
          1.0
        ],
        "metallicFactor": 0.0
      }
    },
    {
      "name": "color_14541540",
      "pbrMetallicRoughness": {
        "baseColorFactor": [
          0.866667,
          0.886275,
          0.894118,
          1.0
        ]
      }
    },
    {
      "doubleSided": true,
      "name": "color_14789940",
      "pbrMetallicRoughness": {
        "baseColorFactor": [
          0.882353,
          0.678431,
          0.203922,
          1.0
        ],
        "metallicFactor": 0.0
      }
    },
    {
      "doubleSided": true,
      "name": "color_14860437",
      "pbrMetallicRoughness": {
        "baseColorFactor": [
          0.886275,
          0.752941,
          0.584314,
          1.0
        ],
        "metallicFactor": 0.0
      }
    },
    {
      "doubleSided": true,
      "name": "color_15277357",
      "pbrMetallicRoughness": {
        "baseColorFactor": [
          0.913725,
          0.113725,
          0.176471,
          1.0
        ],
        "metallicFactor": 0.0
      }
    },
    {
      "doubleSided": true,
      "name": "color_16089887",
      "pbrMetallicRoughness": {
        "baseColorFactor": [
          0.960784,
          0.513726,
          0.121569,
          1.0
        ],
        "metallicFactor": 0.0
      }
    },
    {
      "doubleSided": true,
      "name": "color_16768282",
      "pbrMetallicRoughness": {
        "baseColorFactor": [
          1.0,
          0.866667,
          0.101961,
          1.0
        ],
        "metallicFactor": 0.0
      }
    },
    {
      "doubleSided": true,
      "name": "color_16777215",
      "pbrMetallicRoughness": {
        "metallicFactor": 0.0
      }
    },
    {
      "doubleSided": true,
      "name": "color_2829873",
      "pbrMetallicRoughness": {
        "baseColorFactor": [
          0.168627,
          0.180392,
          0.192157,
          1.0
        ],
        "metallicFactor": 0.0
      }
    },
    {
      "doubleSided": true,
      "name": "color_3888547",
      "pbrMetallicRoughness": {
        "baseColorFactor": [
          0.23137300000000002,
          0.3333329999999997,
          0.6392159999999999,
          1.0
        ],
        "metallicFactor": 0.0
      }
    },
    {
      "doubleSided": true,
      "name": "color_40919",
      "pbrMetallicRoughness": {
        "baseColorFactor": [
          0.0,
          0.623529,
          0.843137,
          1.0
        ],
        "metallicFactor": 0.0
      }
    },
    {
      "doubleSided": true,
      "name": "color_4409770",
      "pbrMetallicRoughness": {
        "baseColorFactor": [
          0.262745,
          0.286275,
          0.666667,
          1.0
        ],
        "metallicFactor": 0.0
      }
    },
    {
      "doubleSided": true,
      "name": "color_4634441",
      "pbrMetallicRoughness": {
        "baseColorFactor": [
          0.27451,
          0.717647,
          0.286275,
          1.0
        ],
        "metallicFactor": 0.0
      }
    },
    {
      "doubleSided": true,
      "name": "color_6383466",
      "pbrMetallicRoughness": {
        "baseColorFactor": [
          0.380392,
          0.403922,
          0.415686,
          1.0
        ],
        "metallicFactor": 0.0
      }
    },
    {
      "doubleSided": true,
      "name": "color_7720667",
      "pbrMetallicRoughness": {
        "baseColorFactor": [
          0.458824,
          0.807843,
          0.858824,
          1.0
        ],
        "metallicFactor": 0.0
      }
    }
  ],
  "meshes": [
    {
      "name": "Object_0",
      "primitives": [
        {
          "attributes": {
            "NORMAL": 1,
            "POSITION": 0
          },
          "indices": 2,
          "material": 0,
          "mode": 4
        }
      ]
    },
    {
      "name": "Object_1",
      "primitives": [
        {
          "attributes": {
            "NORMAL": 4,
            "POSITION": 3
          },
          "indices": 5,
          "material": 1,
          "mode": 4
        }
      ]
    },
    {
      "name": "Object_2",
      "primitives": [
        {
          "attributes": {
            "NORMAL": 7,
            "POSITION": 6
          },
          "indices": 8,
          "material": 2,
          "mode": 4
        }
      ]
    },
    {
      "name": "Object_3",
      "primitives": [
        {
          "attributes": {
            "NORMAL": 10,
            "POSITION": 9
          },
          "indices": 11,
          "material": 3,
          "mode": 4
        }
      ]
    },
    {
      "name": "Object_4",
      "primitives": [
        {
          "attributes": {
            "NORMAL": 13,
            "POSITION": 12
          },
          "indices": 14,
          "material": 4,
          "mode": 4
        }
      ]
    },
    {
      "name": "Object_5",
      "primitives": [
        {
          "attributes": {
            "NORMAL": 16,
            "POSITION": 15
          },
          "indices": 17,
          "material": 5,
          "mode": 4
        }
      ]
    },
    {
      "name": "Object_6",
      "primitives": [
        {
          "attributes": {
            "NORMAL": 19,
            "POSITION": 18
          },
          "indices": 20,
          "material": 6,
          "mode": 4
        }
      ]
    },
    {
      "name": "Object_7",
      "primitives": [
        {
          "attributes": {
            "NORMAL": 22,
            "POSITION": 21
          },
          "indices": 23,
          "material": 7,
          "mode": 4
        }
      ]
    },
    {
      "name": "Object_8",
      "primitives": [
        {
          "attributes": {
            "NORMAL": 25,
            "POSITION": 24
          },
          "indices": 26,
          "material": 8,
          "mode": 4
        }
      ]
    },
    {
      "name": "Object_9",
      "primitives": [
        {
          "attributes": {
            "NORMAL": 28,
            "POSITION": 27
          },
          "indices": 29,
          "material": 9,
          "mode": 4
        }
      ]
    },
    {
      "name": "Object_10",
      "primitives": [
        {
          "attributes": {
            "NORMAL": 31,
            "POSITION": 30
          },
          "indices": 32,
          "material": 10,
          "mode": 4
        }
      ]
    },
    {
      "name": "Object_11",
      "primitives": [
        {
          "attributes": {
            "NORMAL": 34,
            "POSITION": 33
          },
          "indices": 35,
          "material": 11,
          "mode": 4
        }
      ]
    },
    {
      "name": "Object_12",
      "primitives": [
        {
          "attributes": {
            "NORMAL": 37,
            "POSITION": 36
          },
          "indices": 38,
          "material": 12,
          "mode": 4
        }
      ]
    },
    {
      "name": "Object_13",
      "primitives": [
        {
          "attributes": {
            "NORMAL": 40,
            "POSITION": 39
          },
          "indices": 41,
          "material": 13,
          "mode": 4
        }
      ]
    },
    {
      "name": "Object_14",
      "primitives": [
        {
          "attributes": {
            "NORMAL": 43,
            "POSITION": 42
          },
          "indices": 44,
          "material": 14,
          "mode": 4
        }
      ]
    },
    {
      "name": "Object_15",
      "primitives": [
        {
          "attributes": {
            "NORMAL": 46,
            "POSITION": 45
          },
          "indices": 47,
          "material": 15,
          "mode": 4
        }
      ]
    },
    {
      "name": "Object_16",
      "primitives": [
        {
          "attributes": {
            "NORMAL": 49,
            "POSITION": 48
          },
          "indices": 50,
          "material": 16,
          "mode": 4
        }
      ]
    },
    {
      "name": "Object_17",
      "primitives": [
        {
          "attributes": {
            "NORMAL": 52,
            "POSITION": 51
          },
          "indices": 53,
          "material": 17,
          "mode": 4
        }
      ]
    }
  ],
  "nodes": [
    {
      "children": [
        1
      ],
      "matrix": [
        1.0,
        0.0,
        0.0,
        0.0,
        0.0,
        -1.0,
        -4.440892098500626e-16,
        0.0,
        0.0,
        4.440892098500626e-16,
        -1.0,
        0.0,
        0.0,
        -125.82049560546879,
        178.09550476074216,
        1.0
      ],
      "name": "Sketchfab_model"
    },
    {
      "children": [
        2,
        3,
        4,
        5,
        6,
        7,
        8,
        9,
        10,
        11,
        12,
        13,
        14,
        15,
        16,
        17,
        18,
        19
      ],
      "name": "tinker.obj.cleaner.materialmerger.gles"
    },
    {
      "mesh": 0,
      "name": "Object_2"
    },
    {
      "mesh": 1,
      "name": "Object_3"
    },
    {
      "mesh": 2,
      "name": "Object_4"
    },
    {
      "mesh": 3,
      "name": "Object_5"
    },
    {
      "mesh": 4,
      "name": "Object_6"
    },
    {
      "mesh": 5,
      "name": "Object_7"
    },
    {
      "mesh": 6,
      "name": "Object_8"
    },
    {
      "mesh": 7,
      "name": "Object_9"
    },
    {
      "mesh": 8,
      "name": "Object_10"
    },
    {
      "mesh": 9,
      "name": "Object_11"
    },
    {
      "mesh": 10,
      "name": "Object_12"
    },
    {
      "mesh": 11,
      "name": "Object_13"
    },
    {
      "mesh": 12,
      "name": "Object_14"
    },
    {
      "mesh": 13,
      "name": "Object_15"
    },
    {
      "mesh": 14,
      "name": "Object_16"
    },
    {
      "mesh": 15,
      "name": "Object_17"
    },
    {
      "mesh": 16,
      "name": "Object_18"
    },
    {
      "mesh": 17,
      "name": "Object_19"
    }
  ],
  "scene": 0,
  "scenes": [
    {
      "name": "Sketchfab_Scene",
      "nodes": [
        0
      ]
    }
  ]
}
